<svg xmlns="http://www.w3.org/2000/svg" viewBox="0 0 950 350" width="100%" height="100%">
  <defs>
    <linearGradient id="flagGradient" x1="0" y1="70" x2="0" y2="220" gradientUnits="userSpaceOnUse">
      <stop offset="0%" stop-color="#FF9933"/>
      <stop offset="33%" stop-color="#FF9933"/>
      <stop offset="33%" stop-color="#FFFFFF"/>
      <stop offset="67%" stop-color="#FFFFFF"/>
      <stop offset="67%" stop-color="#138808"/>
      <stop offset="100%" stop-color="#138808"/>
    </linearGradient>

    <g id="spoke">
      <path d="M 250 180 L 246 145 L 250 107 L 254 145 Z" fill="#000080" />
      <circle cx="250" cy="100" r="3.5" fill="#000080" />
    </g>
  </defs>

  <text x="60" y="220" font-family="'Arial Black', Impact, sans-serif" font-weight="900" font-size="160" text-anchor="start" fill="rgba(0,0,0,0.15)" letter-spacing="10">PBIA</text>
  
  <text x="56" y="216" font-family="'Arial Black', Impact, sans-serif" font-weight="900" font-size="160" text-anchor="start" fill="none" stroke="#000080" stroke-width="5" stroke-linejoin="round" letter-spacing="10">PBIA</text>
  
  <text x="56" y="216" font-family="'Arial Black', Impact, sans-serif" font-weight="900" font-size="160" text-anchor="start" fill="url(#flagGradient)" letter-spacing="10">PBIA</text>

  <g transform="translate(500, 0)">
    
    <g fill="#A0D8B3" opacity="0.6">
      <path d="M 130 320 C 150 240 140 160 110 100 C 120 160 125 240 110 320 Z" />
      <path d="M 110 100 C 70 80 30 100 20 140 C 40 110 70 110 110 100 Z" />
      <path d="M 110 100 C 150 70 200 80 210 120 C 180 100 140 100 110 100 Z" />
      <path d="M 110 100 C 60 110 30 150 30 190 C 50 150 80 130 110 100 Z" />
      <path d="M 110 100 C 160 120 190 160 180 210 C 170 170 140 140 110 100 Z" />
      <path d="M 110 100 C 100 50 120 20 150 10 C 130 40 120 70 110 100 Z" />
    </g>

    <g id="chakra">
      <circle cx="250" cy="180" r="85" fill="none" stroke="#000080" stroke-width="12" />
      
      <circle cx="250" cy="180" r="14" fill="#000080" />

      <use href="#spoke" />
      <use href="#spoke" transform="rotate(15 250 180)" />
      <use href="#spoke" transform="rotate(30 250 180)" />
      <use href="#spoke" transform="rotate(45 250 180)" />
      <use href="#spoke" transform="rotate(60 250 180)" />
      <use href="#spoke" transform="rotate(75 250 180)" />
      <use href="#spoke" transform="rotate(90 250 180)" />
      <use href="#spoke" transform="rotate(105 250 180)" />
      <use href="#spoke" transform="rotate(120 250 180)" />
      <use href="#spoke" transform="rotate(135 250 180)" />
      <use href="#spoke" transform="rotate(150 250 180)" />
      <use href="#spoke" transform="rotate(165 250 180)" />
      <use href="#spoke" transform="rotate(180 250 180)" />
      <use href="#spoke" transform="rotate(195 250 180)" />
      <use href="#spoke" transform="rotate(210 250 180)" />
      <use href="#spoke" transform="rotate(225 250 180)" />
      <use href="#spoke" transform="rotate(240 250 180)" />
      <use href="#spoke" transform="rotate(255 250 180)" />
      <use href="#spoke" transform="rotate(270 250 180)" />
      <use href="#spoke" transform="rotate(285 250 180)" />
      <use href="#spoke" transform="rotate(300 250 180)" />
      <use href="#spoke" transform="rotate(315 250 180)" />
      <use href="#spoke" transform="rotate(330 250 180)" />
      <use href="#spoke" transform="rotate(345 250 180)" />
    </g>
  </g>
</svg>
